<?xml version="1.0" encoding="UTF-8" standalone="no"?>
<!-- Created with Inkscape (http://www.inkscape.org/) -->

<svg
   xmlns:dc="http://purl.org/dc/elements/1.1/"
   xmlns:cc="http://creativecommons.org/ns#"
   xmlns:rdf="http://www.w3.org/1999/02/22-rdf-syntax-ns#"
   xmlns:svg="http://www.w3.org/2000/svg"
   xmlns="http://www.w3.org/2000/svg"
   xmlns:sodipodi="http://sodipodi.sourceforge.net/DTD/sodipodi-0.dtd"
   xmlns:inkscape="http://www.inkscape.org/namespaces/inkscape"
   width="443.58438"
   height="367.45624"
   viewBox="0 0 443.58438 367.45624"
   preserveAspectRatio="xMidYMid meet"
   id="svg2"
   version="1.1"
   inkscape:version="0.48.4 r9939"
   sodipodi:docname="clean-up.svg">
  <defs
     id="defs4" />
  <sodipodi:namedview
     id="base"
     pagecolor="#ffffff"
     bordercolor="#666666"
     borderopacity="1.0"
     inkscape:pageopacity="0.0"
     inkscape:pageshadow="2"
     inkscape:zoom="0.49497475"
     inkscape:cx="946.56831"
     inkscape:cy="-124.26123"
     inkscape:document-units="px"
     inkscape:current-layer="layer1"
     showgrid="false"
     fit-margin-top="0"
     fit-margin-left="0"
     fit-margin-right="0"
     fit-margin-bottom="0"
     inkscape:window-width="1830"
     inkscape:window-height="1055"
     inkscape:window-x="49"
     inkscape:window-y="0"
     inkscape:window-maximized="1" />
  <metadata
     id="metadata7">
    <rdf:RDF>
      <cc:Work
         rdf:about="">
        <dc:format>image/svg+xml</dc:format>
        <dc:type
           rdf:resource="http://purl.org/dc/dcmitype/StillImage" />
        <dc:title />
      </cc:Work>
    </rdf:RDF>
  </metadata>
  <g
     inkscape:label="Layer 1"
     inkscape:groupmode="layer"
     id="layer1"
     transform="translate(-197.43851,-274.71432)">
    <path
       style="fill:#a05a2c;fill-opacity:1;stroke:#000000;stroke-width:2;stroke-linecap:butt;stroke-linejoin:miter;stroke-miterlimit:4;stroke-opacity:1;stroke-dasharray:none"
       d="m 454.28571,498.07647 c -14.19514,22.14763 -29.08263,45.48828 -53.69318,57.18577 -50.19197,34.48374 -71.2545,63.54556 -129.05866,84.3433 -30.35541,9.99208 -56.01119,-29.94975 -72.31629,-60.52325 -5.4122,-18.48668 18.41123,-43.20143 39.36431,-56.52061 45.70468,-26.00112 13.14749,-9.54507 56.32801,-39.96498 41.33349,-27.80061 78.63216,-62.16851 104.9149,-104.85778 14.39431,-25.79752 36.83572,-49.17528 39.38868,-79.81002 -1.1021,-33.76902 32.0855,-24.03616 44.20021,-3.82076 17.29108,16.41285 38.58375,27.51989 61.26296,34.35177 22.89291,7.96015 28.00178,28.88173 53.04965,31.17546 18.9851,-1.34871 63.04566,26.51157 30.87937,34.23507 -20.76513,8.1947 21.20655,24.26624 -2.97488,36.97897 -18.28207,0.27313 14.8002,10.07584 3.0884,23.86273 -1.94894,15.09909 -33.24494,22.26342 -34.258,17.99023 22.40207,13.96164 9.72117,46.21314 -14.64964,42.56563 1.24555,21.5506 -15.45222,37.74713 -37.20053,29.54568 -14.56632,-0.14343 -17.37877,-21.80677 -2.03726,-8.78975 23.37074,22.82639 -10.86156,58.38646 -33.86777,34.52663 -25.29431,-12.55098 -39.74788,-38.29679 -50.05225,-63.35217 -0.78934,-1.13588 -1.57869,-7.6289 -2.36803,-8.76478"
       id="path3005"
       inkscape:connector-curvature="0"
       sodipodi:nodetypes="ccccccccccccccccccccc" />
    <path
       style="fill:none;stroke:#000000;stroke-width:5;stroke-linecap:butt;stroke-linejoin:miter;stroke-miterlimit:4;stroke-opacity:1;stroke-dasharray:none"
       d="m 485.71429,478.07647 c 6.16843,8.19217 13.12819,16.6274 14.64556,27.11309 3.00992,9.05545 8.24389,18.25359 17.21149,22.47481 6.59591,5.74608 14.47152,9.7679 22.42866,13.26922"
       id="path3013"
       inkscape:connector-curvature="0" />
    <path
       style="fill:none;stroke:#000000;stroke-width:5;stroke-linecap:butt;stroke-linejoin:miter;stroke-miterlimit:4;stroke-opacity:1;stroke-dasharray:none"
       d="m 505.71429,438.07647 c 10.11032,1.68916 20.11986,5.72323 27.54676,12.95838 7.28589,15.66266 19.99353,27.8632 28.71274,42.65104 3.76214,5.50851 6.87846,11.70806 12.31192,15.81915"
       id="path3015"
       inkscape:connector-curvature="0" />
    <path
       style="fill:none;stroke:#000000;stroke-width:5;stroke-linecap:butt;stroke-linejoin:miter;stroke-miterlimit:4;stroke-opacity:1;stroke-dasharray:none"
       d="m 545.71429,400.93361 c 10.41667,1.21463 13.57277,12.58727 18.53156,20.07427 6.14676,11.04094 14.1846,20.89109 21.09426,31.45486 7.14631,8.58203 11.64505,18.91875 18.91843,27.40336 3.35478,2.42935 5.71295,12.24763 -0.47222,7.81045 -1.43201,-2.95322 -1.19338,-6.42026 -0.92918,-9.60009"
       id="path3021"
       inkscape:connector-curvature="0" />
    <path
       style="fill:none;stroke:#000000;stroke-width:5;stroke-linecap:butt;stroke-linejoin:miter;stroke-miterlimit:4;stroke-opacity:1;stroke-dasharray:none"
       d="m 560,369.50504 c 2.12577,-4.03224 11.13132,4.20684 4.4819,1.60806 4.47574,-2.5052 9.23249,5.99161 2.52494,0.50932 -6.89838,-2.4217 -2.47303,5.00593 1.95707,4.20929 17.30098,7.47757 32.40275,18.98043 48.40909,28.73993 8.23424,6.43993 7.96972,18.21963 14.07094,25.98744 -0.005,-0.35135 -8.58173,5.0116 -8.58683,4.66025"
       id="path3023"
       inkscape:connector-curvature="0"
       sodipodi:nodetypes="ccccccc" />
    <path
       style="fill:none;stroke:#000000;stroke-width:1px;stroke-linecap:butt;stroke-linejoin:miter;stroke-opacity:1"
       d="m 540.6528,327.52769 c 2.33316,19.71702 -9.30431,38.05534 -17.19625,55.24153 -11.83075,28.33279 -25.38653,56.38353 -45.04215,80.20962 -8.33979,11.68521 -15.68475,24.05024 -24.19017,35.62029"
       id="path2989"
       inkscape:connector-curvature="0"
       sodipodi:nodetypes="cccc" />
    <path
       style="fill:#ffdd55;fill-opacity:1;fill-rule:nonzero;stroke:#000000;stroke-width:0.35714287;stroke-miterlimit:4;stroke-opacity:1;stroke-dasharray:none"
       d="m 321.35025,301.86646 c -3.04441,-0.81845 -6.2617,-2.57098 -8.87348,-4.83357 -1.32115,-1.14453 -3.04495,-2.42897 -3.83067,-2.85431 -7.35069,-3.9793 -12.23611,-7.6782 -18.77841,-14.21772 -5.36342,-5.36115 -8.65734,-9.35959 -12.81994,-15.56191 -6.77192,-10.09026 -16.26205,-29.48579 -17.85421,-36.48971 -0.39424,-1.73423 -0.80811,-3.47705 -0.91971,-3.87292 -0.14555,-0.51626 0.57736,-1.82906 2.55663,-4.64286 1.51776,-2.1577 5.56676,-8.16523 8.99777,-13.35007 8.19805,-12.38861 11.31467,-16.86504 15.08231,-21.66283 13.81994,-17.5986 25.76822,-39.01367 39.64317,-71.05304 1.53117,-3.53572 4.87049,-10.76786 7.4207,-16.071431 9.10034,-18.925605 11.63187,-26.831541 12.09349,-37.767858 0.1223,-2.897321 0.3491,-5.267857 0.504,-5.267857 0.63426,0 5.66028,1.954471 7.84594,3.051056 5.03218,2.524727 8.36412,5.070209 20.71395,15.824681 4.86515,4.236668 9.07426,7.269759 12.46597,8.982995 4.20831,2.125721 11.39946,3.926428 15.68441,3.927471 10.11042,0.0025 27.07184,7.652147 35.24776,15.896933 7.41051,7.47292 6.22601,12.42424 -3.71566,15.53183 -3.83623,1.19914 -6.87765,3.01855 -7.92936,4.74343 -1.00806,1.6533 -0.93387,4.56664 0.17706,6.95283 0.48025,1.03154 2.33755,3.92374 4.12733,6.42712 4.0036,5.59985 5.44335,8.4852 5.46946,10.96111 0.0105,0.99423 -0.1923,2.19499 -0.45064,2.66837 -0.60225,1.10354 -0.59556,1.1155 -3.09244,-5.53673 -2.96834,-7.90829 -5.30717,-12.12684 -8.23174,-14.8476 -0.56296,-0.52373 -3.91641,-2.78749 -7.45212,-5.03058 -3.53572,-2.2431 -9.40179,-6.00408 -13.03572,-8.35774 -8.69392,-5.63095 -15.44207,-9.63052 -21.77667,-12.90684 -4.90682,-2.537861 -5.16423,-2.724196 -5.06536,-3.666789 0.15555,-1.482918 -0.78875,-2.975725 -2.67096,-4.222454 -0.92449,-0.612357 -1.8175,-1.113378 -1.98446,-1.113378 -0.16697,0 -0.90281,-0.393747 -1.6352,-0.874993 -2.77196,-1.821414 -6.2425,-2.05725 -7.8762,-0.535222 -1.04443,0.973029 -0.97244,1.443479 0.36373,2.37725 l 1.12824,0.788461 -1.04513,0.4062 c -3.07278,1.194254 -3.03849,1.0933 -0.62563,1.842425 1.7911,0.556089 2.26921,0.868272 2.54606,1.662429 0.73734,2.115141 4.31444,4.664411 6.57077,4.682751 1.28639,0.0105 11.98971,5.47699 18.73471,9.56843 2.97764,1.80621 9.08478,5.66489 13.57143,8.57485 4.48664,2.90997 9.91307,6.40334 12.05872,7.76307 6.33252,4.01298 7.50459,5.61133 11.13196,15.18071 1.30139,3.43321 2.67007,6.83849 3.04151,7.56727 0.37144,0.72878 0.67534,1.39232 0.67534,1.47453 0,0.31773 -2.05251,0.9182 -3.92857,1.14931 -3.62265,0.44629 -4.93101,1.80382 -3.81568,3.95906 0.29049,0.56134 2.10045,2.46634 4.02213,4.23335 3.66348,3.3686 5.95406,6.44539 6.62523,8.89924 0.50159,1.83387 0.0389,3.77336 -1.46643,6.14704 -0.59374,0.93624 -1.08111,1.95204 -1.08303,2.25733 -0.0143,2.26929 -3.73951,7.04642 -7.67508,9.84225 -4.03913,2.8694 -12.11193,6.24797 -16.30088,6.82213 l -1.55953,0.21376 -4.8198,-7.60687 c -2.65088,-4.18378 -5.84391,-8.98147 -7.09561,-10.66153 -1.2517,-1.68006 -3.33386,-4.58145 -4.62703,-6.44752 -1.29317,-1.86607 -4.38521,-6.28571 -6.87118,-9.82143 -6.13169,-8.72086 -8.59937,-12.53611 -12.58941,-19.46428 -6.09049,-10.57533 -7.16715,-12.21879 -9.63147,-14.70185 -2.88631,-2.90826 -5.24237,-4.20538 -9.23669,-5.08521 -0.91708,-0.20201 -0.95785,-0.13957 -1.33928,2.05075 -0.53294,3.06035 -0.54616,3.00367 0.76731,3.28765 4.27528,0.92434 7.66645,4.43978 12.04306,12.48437 3.1096,5.71572 8.28462,14.0607 12.29197,19.82143 2.25459,3.24107 5.99235,8.625 8.30613,11.96429 2.31378,3.33928 5.0348,7.14453 6.04671,8.45609 1.01191,1.31156 3.65133,5.22037 5.86536,8.68623 l 4.02552,6.30156 -0.74448,1.00696 c -0.71176,0.96271 -0.71657,1.0322 -0.10946,1.58163 0.34925,0.31607 0.78529,0.57467 0.96898,0.57467 0.18369,0 1.39705,0.95945 2.69635,2.13212 l 2.36236,2.13212 -0.009,3.13574 c -0.0127,4.36877 0.8581,7.0387 2.66848,8.18154 0.738,0.46588 1.50572,0.84705 1.70606,0.84705 0.52586,0 0.43717,3.34726 -0.16385,6.18378 -0.89708,4.23373 -2.7517,7.54222 -6.04318,10.78051 -4.79632,4.71881 -9.27577,6.46479 -15.83718,6.17298 l -3.66298,-0.16291 0,2.36147 c 0,6.18969 -1.63663,12.69969 -4.36001,17.34274 -0.8069,1.37568 -2.68596,3.70635 -4.17818,5.18239 -4.63367,4.58339 -10.15425,6.82365 -16.60822,6.73965 -5.02212,-0.0654 -5.1808,-0.13299 -6.55888,-2.79509 -2.82588,-5.45887 -7.25379,-9.82312 -11.82013,-11.65021 -1.86895,-0.7478 -4.08614,-0.51053 -5.22474,0.55913 l -0.8228,0.77299 -3.51709,-2.29244 c -1.9344,-1.26084 -4.20358,-2.8714 -5.04262,-3.57903 -0.83904,-0.70763 -2.41537,-1.79572 -3.50296,-2.41798 -2.47778,-1.41763 -5.72544,-4.40432 -7.82217,-7.19359 -2.17294,-2.89065 -4.97755,-8.58807 -6.08841,-12.36829 -0.50109,-1.70521 -1.24339,-4.22538 -1.64955,-5.60038 -0.9369,-3.17175 -3.62406,-8.591 -6.05027,-12.2017 -1.63597,-2.43467 -6.69281,-9.35177 -7.5004,-10.25959 -0.1575,-0.17704 -1.2428,0.39461 -2.44436,1.28751 l -2.16108,1.60592 2.85275,3.7891 c 3.87864,5.15169 6.91934,9.83982 8.35644,12.88392 1.14377,2.42276 1.75,4.216 3.45379,10.21627 0.9685,3.41077 3.62391,9.0538 5.88206,12.5 2.17091,3.31307 6.45697,7.62468 9.23066,9.28571 1.14803,0.6875 2.75178,1.76237 3.56389,2.38861 2.47503,1.90854 8.11489,5.64496 10.83176,7.17608 1.41321,0.79642 3.52813,2.42777 4.69983,3.62522 2.44125,2.49489 4.97178,3.81216 8.33434,4.33848 1.23943,0.194 3.01391,0.60033 3.9433,0.90295 1.52281,0.49586 1.73146,0.69761 2.11141,2.04159 0.56028,1.98181 0.55191,7.08059 -0.0156,9.52707 -0.25063,1.08036 -1.19679,3.49107 -2.10259,5.35714 -2.99245,6.16487 -9.23025,11.34403 -15.66311,13.00488 -2.70023,0.69714 -7.50502,0.69636 -10.10145,-0.002 l 1e-5,1.4e-4 z m 55.6328,-66.90659 c 0.81647,-0.96827 1.48448,-1.90566 1.48448,-2.08308 0,-0.17742 -0.60268,-0.80742 -1.33928,-1.39999 -1.89613,-1.52537 -4.71269,-5.32422 -9.74919,-13.14928 -5.27402,-8.19408 -5.9571,-9.16703 -13.91616,-19.82143 -7.4708,-10.00081 -10.20283,-14.06358 -13.396,-19.92111 -2.26087,-4.14731 -2.55442,-4.5157 -5.40695,-6.78571 -6.91795,-5.50522 -13.91858,-8.53861 -25.32864,-10.97498 -0.66074,-0.14109 -0.78977,0.0931 -1.16072,2.10628 -0.22954,1.24576 -0.41735,2.43125 -0.41735,2.63442 0,0.20317 1.24554,0.64426 2.76786,0.98021 6.79571,1.49968 13.04297,4.09039 18.16172,7.53159 3.58733,2.41166 5.1081,4.02628 6.6007,7.00802 2.58005,5.15414 5.6082,9.63832 15.14171,22.4223 3.73577,5.00949 9.18918,12.80414 12.11871,17.32143 2.92952,4.5173 5.89288,8.93648 6.58525,9.82041 1.82926,2.33539 5.50199,6.07143 5.96854,6.07143 0.22047,0 1.06886,-0.79223 1.88532,-1.76051 l 0,0 z"
       id="path3020"
       inkscape:connector-curvature="0"
       transform="translate(197.43851,274.71432)" />
  </g>
</svg>
