<?xml version="1.0" encoding="UTF-8" standalone="no"?>
<!-- Created with Inkscape (http://www.inkscape.org/) -->

<svg
   xmlns:dc="http://purl.org/dc/elements/1.1/"
   xmlns:cc="http://creativecommons.org/ns#"
   xmlns:rdf="http://www.w3.org/1999/02/22-rdf-syntax-ns#"
   xmlns:svg="http://www.w3.org/2000/svg"
   xmlns="http://www.w3.org/2000/svg"
   xmlns:sodipodi="http://sodipodi.sourceforge.net/DTD/sodipodi-0.dtd"
   xmlns:inkscape="http://www.inkscape.org/namespaces/inkscape"
   width="248.91208"
   height="246.9823"
   viewBox="0 0 248.91208 246.9823"
   preserveAspectRatio="xMidYMid meet"
   id="svg2"
   version="1.1"
   inkscape:version="0.48.4 r9939"
   sodipodi:docname="document-revert.svg">
  <defs
     id="defs4">
    <inkscape:path-effect
       effect="spiro"
       id="path-effect3248"
       is_visible="true" />
    <inkscape:path-effect
       effect="spiro"
       id="path-effect3156"
       is_visible="true" />
  </defs>
  <sodipodi:namedview
     id="base"
     pagecolor="#ffffff"
     bordercolor="#666666"
     borderopacity="1.0"
     inkscape:pageopacity="0.0"
     inkscape:pageshadow="2"
     inkscape:zoom="0.35"
     inkscape:cx="1204.0298"
     inkscape:cy="154.54312"
     inkscape:document-units="px"
     inkscape:current-layer="g4044"
     showgrid="false"
     inkscape:window-width="1438"
     inkscape:window-height="1027"
     inkscape:window-x="431"
     inkscape:window-y="0"
     inkscape:window-maximized="0"
     fit-margin-top="0"
     fit-margin-left="0"
     fit-margin-right="0"
     fit-margin-bottom="0" />
  <metadata
     id="metadata7">
    <rdf:RDF>
      <cc:Work
         rdf:about="">
        <dc:format>image/svg+xml</dc:format>
        <dc:type
           rdf:resource="http://purl.org/dc/dcmitype/StillImage" />
        <dc:title />
      </cc:Work>
    </rdf:RDF>
  </metadata>
  <g
     inkscape:label="Layer 1"
     inkscape:groupmode="layer"
     id="layer1"
     transform="translate(-426.37489,-656.88745)">
    <rect
       style="fill:#f4f4f4;fill-opacity:1;fill-rule:nonzero;stroke:none"
       id="rect3015"
       width="197.48482"
       height="246.9823"
       x="477.80215"
       y="656.88745"
       rx="2.0797873"
       ry="2" />
    <rect
       style="fill:#e4e4e4;fill-opacity:1;fill-rule:nonzero;stroke:none"
       id="rect3017"
       width="38.385822"
       height="246.47722"
       x="444.4671"
       y="657.39252"
       rx="2"
       ry="2" />
    <rect
       style="fill:#999999;fill-opacity:1;fill-rule:nonzero;stroke:none"
       id="rect3043-2"
       width="144.45183"
       height="11.616752"
       x="511.13718"
       y="676.33295"
       rx="2.0797873"
       ry="2" />
    <path
       sodipodi:type="arc"
       style="fill:#999999;fill-opacity:1;fill-rule:nonzero;stroke:none"
       id="path3023"
       sodipodi:cx="457.09402"
       sodipodi:cy="621.02704"
       sodipodi:rx="9.5964489"
       sodipodi:ry="9.5964489"
       d="m 466.69047,621.02704 c 0,5.29997 -4.29647,9.59645 -9.59645,9.59645 -5.29997,0 -9.59644,-4.29648 -9.59644,-9.59645 0,-5.29997 4.29647,-9.59645 9.59644,-9.59645 5.29998,0 9.59645,4.29648 9.59645,9.59645 z"
       transform="matrix(0.76315789,0,0,0.76315789,115.07764,259.46483)" />
    <path
       sodipodi:type="arc"
       style="fill:#999999;fill-opacity:1;fill-rule:nonzero;stroke:none"
       id="path3023-1"
       sodipodi:cx="457.09402"
       sodipodi:cy="621.02704"
       sodipodi:rx="9.5964489"
       sodipodi:ry="9.5964489"
       d="m 466.69047,621.02704 c 0,5.29997 -4.29647,9.59645 -9.59645,9.59645 -5.29997,0 -9.59644,-4.29648 -9.59644,-9.59645 0,-5.29997 4.29647,-9.59645 9.59644,-9.59645 5.29998,0 9.59645,4.29648 9.59645,9.59645 z"
       transform="matrix(0.76315789,0,0,0.76315789,114.84541,342.0448)" />
    <rect
       style="fill:#999999;fill-opacity:1;fill-rule:nonzero;stroke:none"
       id="rect3043"
       width="141.92645"
       height="11.616752"
       x="511.11685"
       y="698.28339"
       rx="2.0434272"
       ry="2" />
    <rect
       style="fill:#999999;fill-opacity:1;fill-rule:nonzero;stroke:none"
       id="rect3043-6"
       width="130.81477"
       height="11.616752"
       x="511.64227"
       y="719.76947"
       rx="1.8834437"
       ry="2" />
    <rect
       style="fill:#999999;fill-opacity:1;fill-rule:nonzero;stroke:none"
       id="rect3043-21"
       width="138.896"
       height="11.616752"
       x="511.12701"
       y="764.44836"
       rx="1.9997954"
       ry="2" />
    <rect
       style="fill:#999999;fill-opacity:1;fill-rule:nonzero;stroke:none"
       id="rect3043-2-5"
       width="144.45183"
       height="11.616752"
       x="511.14734"
       y="742.49792"
       rx="2.0797873"
       ry="2" />
    <rect
       style="fill:#999999;fill-opacity:1;fill-rule:nonzero;stroke:none"
       id="rect3043-6-7"
       width="141.42137"
       height="11.616752"
       x="511.65244"
       y="785.93445"
       rx="2.0361555"
       ry="2" />
    <rect
       style="fill:#999999;fill-opacity:1;fill-rule:nonzero;stroke:none"
       id="rect3043-1"
       width="138.896"
       height="11.616752"
       x="511.62701"
       y="829.85571"
       rx="1.9997954"
       ry="2" />
    <rect
       style="fill:#999999;fill-opacity:1;fill-rule:nonzero;stroke:none"
       id="rect3043-2-3"
       width="144.45183"
       height="11.616752"
       x="511.64734"
       y="807.90527"
       rx="2.0797873"
       ry="2" />
    <rect
       style="fill:#999999;fill-opacity:1;fill-rule:nonzero;stroke:none"
       id="rect3043-6-79"
       width="139.90614"
       height="11.616752"
       x="512.1524"
       y="851.3418"
       rx="2.0143394"
       ry="2" />
    <rect
       style="fill:#999999;fill-opacity:1;fill-rule:nonzero;stroke:none"
       id="rect3043-2-5-7"
       width="94.44928"
       height="11.616752"
       x="511.6575"
       y="872.07025"
       rx="1.359861"
       ry="2" />
    <g
       id="g4044"
       transform="translate(19.697975,-208.5965)">
      <path
         sodipodi:open="true"
         transform="matrix(2.8888552,0.76056406,-0.49958625,4.3979582,-1144.7011,-2906.242)"
         sodipodi:end="6.3186679"
         sodipodi:start="3.6037907"
         d="m 680.11797,761.40367 c 9.91689,-12.04944 34.09299,-16.95113 53.99884,-10.94822 14.13278,4.26194 22.84654,13.13044 22.28641,22.68214"
         sodipodi:ry="24.375"
         sodipodi:rx="40.267857"
         sodipodi:cy="772.27289"
         sodipodi:cx="716.16071"
         id="path3174"
         style="fill:none;stroke:none"
         sodipodi:type="arc" />
      <path
         sodipodi:open="true"
         sodipodi:end="6.4059366"
         sodipodi:start="3.5533125"
         d="m 679.25788,762.51835 c 8.89986,-12.33698 32.63659,-17.97082 53.01746,-12.58354 16.33057,4.31666 26.03213,14.61716 23.85023,25.32263"
         sodipodi:ry="24.375"
         sodipodi:rx="40.267857"
         sodipodi:cy="772.27289"
         sodipodi:cx="716.16071"
         id="path3174-7"
         style="fill:none;stroke:none"
         sodipodi:type="arc"
         transform="matrix(2.0522863,0.54031617,-0.3549136,3.1243758,-656.97028,-1762.3903)" />
      <path
         transform="matrix(-0.67837471,2.0462346,-3.0739775,-2.5253266,3315.42,1559.4802)"
         inkscape:transform-center-y="-2.4171393"
         inkscape:transform-center-x="-3.7177245"
         d="m 675.17855,796.64789 c -1.08254,-1.098 6.70038,-29.34146 8.19254,-29.72997 1.49215,-0.3885 22.06026,20.47344 21.65063,21.95993 -0.40963,1.4865 -28.76064,8.86803 -29.84317,7.77004 z"
         inkscape:randomized="0"
         inkscape:rounded="0.05"
         inkscape:flatsided="true"
         sodipodi:arg2="3.4104841"
         sodipodi:arg1="2.3632866"
         sodipodi:r2="8.9021931"
         sodipodi:r1="17.804386"
         sodipodi:cy="784.14789"
         sodipodi:cx="687.85712"
         sodipodi:sides="3"
         id="path3198"
         style="fill:none;stroke:none"
         sodipodi:type="star" />
      <path
         inkscape:connector-curvature="0"
         inkscape:original-d="m 653.5687,1069.0297 c -34.34519,-1.0102 -34.34519,-1.0102 -34.34519,-1.0102"
         inkscape:path-effect="#path-effect3248"
         id="path3246"
         d="m 653.5687,1069.0297 -34.34519,-1.0102"
         style="fill:none;stroke:none" />
      <path
         inkscape:connector-curvature="0"
         id="path4030"
         d="m 636.64503,1067.8349 c -8.19459,-0.2561 -14.96402,-0.5304 -15.04318,-0.6095 -0.0792,-0.079 0.0991,-1.2282 0.39603,-2.5534 0.94569,-4.2198 1.44739,-13.9432 1.00341,-19.4467 -3.00779,-37.2837 -31.6212,-71.39987 -70.45196,-84.00092 -21.1752,-6.8716 -44.78883,-5.64112 -62.52601,3.25817 -8.07671,4.05234 -16.86405,11.16915 -21.94684,17.77461 l -2.31934,3.01416 -2.03116,-2.21972 c -1.11714,-1.22084 -6.36289,-6.84782 -11.65722,-12.50439 -5.29433,-5.65658 -9.69933,-10.47889 -9.78888,-10.71626 -0.32109,-0.8511 12.88656,-13.42298 17.58795,-16.74132 8.85972,-6.25339 20.31526,-11.49506 31.08389,-14.22294 10.29618,-2.60821 14.25223,-3.04324 27.50496,-3.02462 11.19334,0.0157 13.09745,0.1476 19.95051,1.38181 30.01047,5.40476 55.88429,19.27206 77.52921,41.55245 11.03369,11.35763 18.32265,21.6319 25.03542,35.28907 8.46318,17.2184 13.06529,37.6966 12.15271,54.0764 -0.36539,6.5584 -0.83609,10.3532 -1.27009,10.2397 -0.17059,-0.045 -7.01482,-0.2906 -15.20941,-0.5466 l 0,0 z"
         style="fill:#c837ab;fill-opacity:1;fill-rule:nonzero;stroke:none" />
      <path
         inkscape:connector-curvature="0"
         id="path4042"
         d="m 475.77774,1015.3024 c -20.80998,-2.0312 -49.80184,-6.788 -58.43364,-9.5874 -1.92829,-0.6254 -2.46761,-1.069 -2.89286,-2.3793 -2.03761,-6.27821 -4.57335,-38.77722 -4.58264,-58.73279 -0.004,-9.00297 0.50893,-16.3663 1.1405,-16.3663 2.50254,0 70.11884,72.05849 81.63611,86.99939 0.6395,0.8296 0.3596,0.88 -4.55753,0.8202 -2.88138,-0.035 -8.42086,-0.3742 -12.30994,-0.7538 z"
         style="fill:#c837ab;fill-opacity:1;fill-rule:nonzero;stroke:none" />
    </g>
  </g>
</svg>
