<?xml version="1.0" encoding="UTF-8" standalone="no"?>
<!-- Created with Inkscape (http://www.inkscape.org/) -->

<svg
   xmlns:dc="http://purl.org/dc/elements/1.1/"
   xmlns:cc="http://creativecommons.org/ns#"
   xmlns:rdf="http://www.w3.org/1999/02/22-rdf-syntax-ns#"
   xmlns:svg="http://www.w3.org/2000/svg"
   xmlns="http://www.w3.org/2000/svg"
   xmlns:sodipodi="http://sodipodi.sourceforge.net/DTD/sodipodi-0.dtd"
   xmlns:inkscape="http://www.inkscape.org/namespaces/inkscape"
   width="587.47974"
   height="663.3728"
   viewBox="0 0 587.47974 663.3728"
   preserveAspectRatio="xMidYMid meet"
   id="svg2"
   version="1.1"
   inkscape:version="0.48.4 r9939"
   sodipodi:docname="help-about.svg">
  <defs
     id="defs4" />
  <sodipodi:namedview
     id="base"
     pagecolor="#ffffff"
     bordercolor="#666666"
     borderopacity="1.0"
     inkscape:pageopacity="0.0"
     inkscape:pageshadow="2"
     inkscape:zoom="0.175"
     inkscape:cx="2164.2491"
     inkscape:cy="802.45725"
     inkscape:document-units="px"
     inkscape:current-layer="layer1"
     showgrid="false"
     inkscape:window-width="1830"
     inkscape:window-height="1055"
     inkscape:window-x="49"
     inkscape:window-y="0"
     inkscape:window-maximized="1"
     fit-margin-top="0"
     fit-margin-left="0"
     fit-margin-right="0"
     fit-margin-bottom="0" />
  <metadata
     id="metadata7">
    <rdf:RDF>
      <cc:Work
         rdf:about="">
        <dc:format>image/svg+xml</dc:format>
        <dc:type
           rdf:resource="http://purl.org/dc/dcmitype/StillImage" />
        <dc:title />
      </cc:Work>
    </rdf:RDF>
  </metadata>
  <g
     inkscape:label="Layer 1"
     inkscape:groupmode="layer"
     id="layer1"
     transform="translate(-119.67659,-241.17921)">
    <path
       sodipodi:type="arc"
       style="fill:#008000;fill-opacity:1;fill-rule:nonzero;stroke:none"
       id="path2995"
       sodipodi:cx="595.83868"
       sodipodi:cy="633.79077"
       sodipodi:rx="344.4101"
       sodipodi:ry="212.85715"
       d="m 940.24878,633.79077 c 0,117.55776 -154.19765,212.85715 -344.4101,212.85715 -190.21244,0 -344.41009,-95.29939 -344.41009,-212.85715 0,-117.55775 154.19765,-212.85715 344.41009,-212.85715 190.21245,0 344.4101,95.2994 344.4101,212.85715 z"
       transform="matrix(0.45948676,-0.88818462,1.1623892,0.60134171,-597.07507,720.95554)" />
    <g
       id="g3255"
       transform="translate(-1548.5714,631.42857)">
      <path
         sodipodi:nodetypes="cccccc"
         inkscape:connector-curvature="0"
         id="path3109"
         d="m 1881.4286,-101.20924 c 66.1965,-0.10774 132.3749,-2.03516 198.5714,-2.14286 -23.1733,10.146981 -50.0106,13.294346 -69.685,30.388438 -28.5897,50.630008 -39.156,108.7361 -63.5338,161.213333 -11.7028,18.741299 2.8731,26.765029 20.9479,23.319459 13.384,-1.10637 32.7231,-3.09203 44.9008,-9.14318"
         style="fill:none;stroke:#000000;stroke-width:1px;stroke-linecap:butt;stroke-linejoin:miter;stroke-opacity:1" />
      <path
         sodipodi:nodetypes="ccccccc"
         inkscape:connector-curvature="0"
         id="path3111"
         d="m 1882.8572,-101.20924 c 8.8093,9.52285 26.8935,12.833564 25.2893,31.27101 -1.4648,18.76145 -7.3214,24.672105 -12.0302,42.634531 -13.9575,42.196865 -26.7814,84.77481 -41.481,126.726833 -1.8876,16.088736 15.1065,26.789266 29.3625,27.691066 31.4227,2.68592 64.4553,2.90584 95.8188,1.08987 11.5597,-2.3637 21.1961,-18.64102 31.2285,-24.70925"
         style="fill:none;stroke:#000000;stroke-width:1px;stroke-linecap:butt;stroke-linejoin:miter;stroke-opacity:1" />
      <path
         transform="matrix(0.81642595,-0.09699365,0.09699365,0.81642595,372.9587,157.1316)"
         d="m 2015.4047,-206.31477 c -4.2557,-1.44797 -0.6405,-6.87004 1.8528,-7.93718 6.6344,-2.83952 13.071,3.41158 14.2327,9.59505 1.9939,10.61403 -7.2988,19.55161 -17.3374,20.52807 -14.4701,1.40754 -26.134,-11.20728 -26.8235,-25.07958 -0.9097,-18.30342 15.1209,-32.75807 32.8219,-33.11896 22.1303,-0.4512 39.4033,19.03626 39.4144,40.56411 0.013,25.95493 -22.9526,46.06101 -48.3064,45.70985 -29.7787,-0.41244 -52.7265,-26.86944 -52.0053,-56.04864 0.8305,-33.60201 30.7867,-59.39717 63.7909,-58.30074 37.4252,1.2433 66.0716,34.70422 64.5962,71.53317 -1.6525,41.24831 -38.622,72.74871 -79.2754,70.89163 -36.8475,-1.68321 -68.0289,-29.53171 -75.5084,-65.37408"
         sodipodi:t0="0.012172931"
         sodipodi:argument="-15.834394"
         sodipodi:radius="84.554657"
         sodipodi:revolution="2.9958272"
         sodipodi:expansion="1"
         sodipodi:cy="-206.20924"
         sodipodi:cx="2016.4286"
         id="path3205"
         style="fill:#ffcc00;stroke:#000000;stroke-width:1px;stroke-linecap:butt;stroke-linejoin:miter;stroke-opacity:1"
         sodipodi:type="spiral" />
      <path
         inkscape:connector-curvature="0"
         id="path3253"
         d="m 1914.1465,128.12651 c -15.1017,-0.4367 -33.1058,-1.96951 -37.201,-3.16716 -12.3901,-3.62352 -20.75,-11.96287 -21.5123,-21.45933 -0.2406,-2.99687 0.085,-4.138196 7.3709,-25.829171 7.2647,-21.627927 32.6025,-99.811719 34.9357,-107.799111 0.6085,-2.08344 2.6974,-8.106474 4.6418,-13.384521 4.8329,-13.118545 6.1106,-18.822949 6.1658,-27.526657 0.041,-6.502588 -0.023,-6.953092 -1.3828,-9.722595 -2.0876,-4.25124 -5.5709,-7.749603 -12.2999,-12.353087 -3.2846,-2.247063 -6.8109,-4.75497 -7.8361,-5.573126 l -1.864,-1.487552 9.9002,-0.33157 c 5.4451,-0.18236 17.3072,-0.33712 26.3602,-0.3439 9.053,-0.007 37.8248,-0.34247 63.9372,-0.74596 55.6822,-0.8604 89.7856,-0.9522 88.5629,-0.23839 -0.4596,0.2683 -8.9301,3.214193 -18.8234,6.54642 -23.8506,8.033353 -32.9237,12.17259 -42.2896,19.292967 l -3.4239,2.602991 -6.2887,12.667386 c -10.8738,21.903408 -15.0807,32.833071 -33.6477,87.418674 -10.4088,30.601117 -18.4765,51.386814 -24.8969,64.144687 -7.5448,14.992065 1.4002,23.984415 21.6144,21.728835 3.3335,-0.37196 7.6519,-0.82782 9.5965,-1.01303 9.0029,-0.85744 22.603,-3.25692 28.9801,-5.113 0.7571,-0.22034 -1.2966,2.13645 -5.5558,6.37591 -8.5255,8.48596 -11.6998,11.12692 -15.693,13.05626 -3.1386,1.51647 -3.36,1.54695 -15.0061,2.06619 -10.3487,0.4614 -41.1973,0.56803 -54.3445,0.18784 l 0,0 z"
         style="fill:#ffcc00;fill-opacity:1;fill-rule:nonzero;stroke:none" />
    </g>
  </g>
</svg>
